<svg xmlns="http://www.w3.org/2000/svg" version="1.1" xmlns:xlink="http://www.w3.org/1999/xlink" xmlns:svgjs="http://svgjs.dev/svgjs" viewBox="0 0 800 800"><defs><linearGradient x1="50%" y1="0%" x2="50%" y2="100%" id="uundulate-grad"><stop stop-color="hsl(205, 69%, 60%)" stop-opacity="1" offset="45%"></stop><stop stop-color="hsl(205, 69%, 80%)" stop-opacity="1" offset="100%"></stop></linearGradient></defs><g stroke-width="2" stroke="url(#uundulate-grad)" fill="none"><path d="M670.3011863226766 355.2567022466443C688.6453057454282 440.4237488082896 651.4098896012748 571.8454461365557 591.1178776716409 634.7326931339123C530.825865742007 697.6199401312689 453.0814385798243 686.127327507654 380.89952906043436 657.1154878339555C308.71761954104454 628.1036481602571 294.91347084325935 604.0156891956576 244.64471197856858 495.47586270015927C194.3759531138778 386.9360362046607 85.77169641328027 192.27952754350963 139.6094865099189 136.12432065556283C193.44727660655747 79.96911376761602 392.5053336481092 180.27829013987298 503.06610444243347 225.93086963801488C613.6268752367578 271.58344913615673 651.9570668999249 270.08965568499906 670.3011863226766 355.2567022466443C688.6453057454282 440.4237488082896 651.4098896012748 571.8454461365557 591.1178776716409 634.7326931339123 "></path><path d="M658.0147382449768 357.29051625141335C675.5250340576034 438.58633342389294 639.9821368290933 564.0343172372379 582.430670896261 624.0630530074418C524.8792049634285 684.0917887776459 450.66861539952697 673.1215676369227 381.76770176738205 645.4284479483923C312.86678813523713 617.735328259862 299.6901007418967 594.7422765209261 251.70628546196463 491.1360785024958C203.7224701820325 387.5298804840654 100.0547706041894 201.72139494387568 151.4453884237081 148.11869745992647C202.83600624322673 94.51599997597725 392.8459697828898 190.2656683313134 498.3812509956538 233.84313057953977C603.916532208418 277.4205928277661 640.5044424323502 275.99469907893376 658.0147382449768 357.29051625141335C675.5250340576034 438.58633342389294 639.9821368290933 564.0343172372379 582.430670896261 624.0630530074418 "></path><path d="M645.7283206848551 359.32431499739323C662.4047928873567 436.7489027807071 628.55441457449 556.2231730791309 573.743494638459 613.3933976221824C518.9325747024282 670.5636221652338 448.25582273680766 660.1157925074021 382.63590499190764 633.7413928040398C317.01598724700784 607.3669931006775 304.46676115811226 585.4688485874054 258.7678894629388 486.7962790460432C213.06901776776533 388.12370950468096 114.33787531267666 211.16324708545267 163.28132085507542 160.11305900550104C212.22476639747413 109.06287092554942 393.1866364352484 200.25303126396477 493.6964280664524 241.7553762622756C594.2062196976563 283.2577212605864 629.0518484823535 281.8997272140794 645.7283206848551 359.32431499739323C662.4047928873567 436.7489027807071 628.55441457449 556.2231730791309 573.743494638459 613.3933976221824 "></path><path d="M633.4419031247335 361.35809848458416C649.2845517171099 434.91145687873245 617.1266923198865 548.4120136622349 565.0563183806572 602.7237269781338C512.9859444414278 657.0354402940327 445.84303007408835 647.1100021190925 383.50410821643345 622.0543224008984C321.16518635877856 596.9986426827043 309.2434215743277 576.1954053950957 265.82949346391297 482.4564643308015C222.41556535349815 388.71752326650744 128.62098002116392 220.6050839682406 175.11725328644275 172.1074052922865C221.61352655172152 123.60972661633247 393.52730308760704 210.24037893782713 489.01160513725085 249.66760668622237C584.4959071868946 289.0948344346176 617.599254532357 287.804740090436 633.4419031247335 361.35809848458416C649.2845517171099 434.91145687873245 617.1266923198865 548.4120136622349 565.0563183806572 602.7237269781338 "></path><path d="M621.1554855646118 363.3918819717751C636.1643105468632 433.07401097675756 605.6989700652831 540.600854245339 556.3691421228554 592.0540563340853C507.0393141804275 643.5072584228315 443.43023741136903 634.104211730783 384.37231144095904 610.367251997757C325.31438547054915 586.630292264731 314.0200819905432 566.9219622027861 272.8910974648871 478.11664961555994C231.76211293923097 389.31133702833404 142.90408472965117 230.04692085102846 186.95318571781007 184.10175157907202C231.0022867059689 138.1565823071155 393.8679697399658 220.22772661168943 484.3267822080493 257.57983711016914C574.7855946761329 294.93194760864884 606.1466605823604 293.70975296679256 621.1554855646118 363.3918819717751C636.1643105468632 433.07401097675756 605.6989700652831 540.600854245339 556.3691421228554 592.0540563340853 "></path><path d="M608.8690680044901 365.4256654589659C623.0440693766164 431.2365650747827 594.2712478106797 532.7896948284429 547.6819658650535 581.3843856900367C501.09268391942726 629.9790765516302 441.0174447486497 621.0984213424734 385.24051466548485 598.6801815946155C329.4635845823199 576.2619418467575 318.79674240675865 557.6485190104762 279.95270146586125 473.77683490031836C241.1086605249638 389.9051507901604 157.18718943813843 239.48875773381639 198.7891181491774 196.09609786585753C240.3910468602163 152.70343799789862 394.2086363923245 230.21507428555174 479.6419592788477 265.4920675341159C565.0752821653712 300.76906078268007 594.6940666323638 299.61476584314914 608.8690680044901 365.4256654589659C623.0440693766164 431.2365650747827 594.2712478106797 532.7896948284429 547.6819658650535 581.3843856900367 "></path><path d="M596.5826504443685 367.45944894615684C609.9238282063698 429.3991191728079 582.8435255560763 524.9785354115469 538.9947896072516 570.714715045988C495.1460536584269 616.4508946804292 438.6046520859304 608.0926309541638 386.10871789001055 586.9931111914741C333.6127836940906 565.8935914287842 323.5734028229742 548.3750758181666 287.01430546683537 469.4370201850768C250.45520811069662 390.498964551987 171.4702941466257 248.9305946166043 210.62505058054467 208.090444152643C249.7798070144637 167.25029368868172 394.54930304468314 240.20242195941404 474.95713634964625 273.40429795806267C555.3649696546095 306.6061739567113 583.2414726823672 305.5197787195057 596.5826504443685 367.45944894615684C609.9238282063698 429.3991191728079 582.8435255560763 524.9785354115469 538.9947896072516 570.714715045988 "></path><path d="M584.296263401825 369.49323243334766C596.8036175537011 427.5616732708331 571.415833819051 517.1673759946509 530.307643867028 560.0450444019395C489.1994539150048 602.9227128092281 436.1918899407892 595.0868405658543 386.9769516321144 575.3060407883327C337.7620133234394 555.525241010811 328.35009375676776 539.1016326258568 294.07593998538766 465.0972054698351C259.8017862140076 391.0927783138135 185.75342937269107 258.37243149939223 222.46101352949012 220.0847904394285C259.1685976862892 181.79714937946477 394.89000021461993 250.18976963327634 470.2723439380229 281.31652838200944C545.6546876614258 312.44328713074253 571.7889092499488 311.4247915958623 584.296263401825 369.49323243334766C596.8036175537011 427.5616732708331 571.415833819051 517.1673759946509 530.307643867028 560.0450444019395 "></path><path d="M572.0098611004923 371.5270159205386C583.6833916422435 425.72422736885835 559.9881268232366 509.35621657775494 521.6204828680151 549.3753737578909C483.25283891279355 589.394530938027 433.7791125368591 582.0810501775447 387.84517011542914 563.6189703851912C341.9112276939992 545.1568905928376 333.1267694317723 529.8281894335471 301.1375592451509 460.75739075459353C269.1483490585295 391.68659207563996 200.0365493399674 267.81426838218016 234.2969612196465 232.07913672621402C268.5573730993257 196.34400507024787 395.23068212576766 260.17711730713864 465.5875362676104 289.2287588059562C535.944390409453 318.28040030477376 560.3363305587413 317.3298044722189 572.0098611004923 371.5270159205386C583.6833916422435 425.72422736885835 559.9881268232366 509.35621657775494 521.6204828680151 549.3753737578909 "></path><path d="M559.7234130227926 373.5607994077295C570.5631199544185 423.8867814668836 548.5603740510551 501.54505716085896 512.9332760926351 538.7057031138423C477.3061781342151 575.8663490668258 431.36628935656165 569.0752597892351 388.7133428223767 551.9318999820498C346.0603962881918 534.7885401748642 337.9033993304097 520.5547462412374 308.19913272854694 456.41757603935184C278.4948661266842 392.28040583746645 214.31962353087653 277.256105264968 246.1328631334357 244.07348301299947C277.94610273599494 210.89086076103092 395.5713182605482 270.16446498100095 460.9026828208307 297.14098922990297C526.2340473811132 324.117513478805 548.8837060911666 323.23481734857546 559.7234130227926 373.5607994077295C570.5631199544185 423.8867814668836 548.5603740510551 501.54505716085896 512.9332760926351 538.7057031138423 "></path><path d="M547.4369954626709 375.59458289492034C557.4428787841719 422.0493355649087 537.1326517964517 493.73389774396287 504.2460998348332 528.0360324697938C471.35954787321475 562.3381671956247 428.95349669384234 556.0694694009256 389.5815460469024 540.2448295789084C350.2095953999625 524.420189756891 342.68005974662515 511.2813030489276 315.2607367295211 452.07776132411027C287.841413712417 392.8742195992929 228.60272823936378 286.69794214775595 257.96879556480303 256.067829299785C287.3348628902423 225.43771645181403 395.91198491290686 280.15181265486325 456.21785989162925 305.05321965384974C516.5237348703515 329.9546266528362 537.4311121411699 329.139830224932 547.4369954626709 375.59458289492034C557.4428787841719 422.0493355649087 537.1326517964517 493.73389774396287 504.2460998348332 528.0360324697938 "></path><path d="M535.1506236789164 377.6283663821112C544.3226833902922 420.2118896629338 525.7049753182155 485.9227383270669 495.55896935339865 517.3663618257452C465.4129633885816 548.8099853244235 426.54074980749033 543.063679012616 390.4497950477953 528.5577591757668C354.3588402881004 514.0518393389176 347.4567659392078 502.00785985661787 322.3223865068624 447.7379466088687C297.18800707451703 393.4680333611194 242.88587872421823 296.1397790305439 269.80477377253754 268.0621755865705C296.72366882085686 239.98457214259707 396.2526973416327 290.13916032872555 451.53308273879486 312.9654500777965C506.813468135957 335.79173982686746 525.9785639675406 335.0448431012886 535.1506236789164 377.6283663821112C544.3226833902922 420.2118896629338 525.7049753182155 485.9227383270669 495.55896935339865 517.3663618257452 "></path><path d="M522.8641603424276 379.6621498693021C531.2023964436784 418.374443760959 514.277207287245 478.1115789101709 486.8717473192295 506.6966911816967C459.4662873512141 535.2818034532224 424.12791136840383 530.0578886243065 391.3179524959538 516.8706887726254C358.5079936235039 503.6834889209442 352.23338057905613 492.7344166643081 329.3839447314694 443.3981318936271C306.53450888388267 394.06184712294595 257.16893765633836 305.5816159133318 281.6406604275377 280.05652187335596C306.11238319873706 254.53142783338018 396.5933182176242 300.12650800258785 446.8482140332262 320.87768050174327C497.1031098488281 341.62885300089863 514.5259242411768 340.94985597764514 522.8641603424276 379.6621498693021C531.2023964436784 418.374443760959 514.277207287245 478.1115789101709 486.8717473192295 506.6966911816967 "></path><path d="M510.5777427823059 381.69596387407114C518.0821552734317 416.5370283765624 502.8494850326415 470.30045001085307 478.18457106142773 496.02705105522625C453.51965709021374 521.7536520995993 421.7151187056845 517.0521287535751 392.1861557204795 505.1836488870621C362.6571927352746 493.3151690205491 357.0100409952716 483.4610039895766 336.4455487324435 439.05834769596356C315.8810564696155 394.6556914023506 271.4520423648256 315.02348331369785 293.476592858905 292.0508986777196C315.50114335298446 269.07831404174135 396.9339848699829 310.1138861940283 442.16339110402464 328.78994144326816C487.39279733806643 347.46599669250804 503.0733302911801 346.8548993715799 510.5777427823059 381.69596387407114C518.0821552734317 416.5370283765624 502.8494850326415 470.30045001085307 478.18457106142773 496.02705105522625 "></path><path d="M498.29132522218424 383.7297015848948C504.9619141031849 414.69953669822036 491.4217627780381 462.4892448175899 469.49739480362587 485.3573346348104C447.57302682921346 508.225424452031 419.3023260429652 504.04629258889827 393.0543589450053 493.49653270755346C366.8063918470453 482.94677282620853 361.78670141148706 474.1875150208997 343.5071527334177 434.7184872043548C325.2276040553483 395.2494593878099 285.7351470733129 324.4652744201186 305.31252529027233 304.04519918813793C324.88990350723185 283.62512395615727 397.27465152234157 320.1011880915234 437.4785681748231 336.70212609084774C477.68248482730473 353.30306409017203 491.6207363411836 352.75986647156924 498.29132522218424 383.7297015848948C504.9619141031849 414.69953669822036 491.4217627780381 462.4892448175899 469.49739480362587 485.3573346348104 "></path><path d="M486.0049076620626 385.76350033087476C491.8416729329381 412.86210605503464 479.9940405234347 454.67810065948294 460.81021854582394 474.6876792495509C441.6263965682132 494.69725783961894 416.88953338024595 491.04051745937784 393.922562169531 481.8094775632011C370.955590958816 472.5784376670242 366.5633618277026 464.914087087379 350.56875673439185 430.37868774790223C334.57415164108113 395.84328840842545 300.01825178180013 333.9071265616955 317.14845772163966 316.03956073371245C334.27866366147924 298.1719949057294 397.61531817470023 330.08855102417476 432.7937452456216 344.61437177358357C467.9721723165429 359.1401925229923 480.1681423911871 358.6648946067149 486.0049076620626 385.76350033087476C491.8416729329381 412.86210605503464 479.9940405234347 454.67810065948294 460.81021854582394 474.6876792495509 "></path><path d="M473.71850536073 387.7972990768547C478.72144702148046 411.0246754118489 468.5663335276204 446.86695650137597 452.12305754681114 464.0180238642914C435.6797815660019 481.1690912272069 414.4767559763157 478.03474232985735 394.79078065284574 470.1224224188487C375.1048053293758 462.21010250784 371.3400375027071 455.64065915385834 357.6303759941551 426.03888829144967C343.920714485603 396.437117429041 314.30137174907645 343.3489787032725 328.98440541179605 328.033922279287C343.6674390745157 312.71886585530154 397.95600008584796 340.0759139568262 428.10893757520915 352.5266174563194C458.2618750645703 364.9773209558126 468.7155636999795 364.5699227418605 473.71850536073 387.7972990768547C478.72144702148046 411.0246754118489 468.5663335276204 446.86695650137597 452.12305754681114 464.0180238642914 "></path><path d="M461.4320878006083 389.8310825640456C465.6012058512337 409.18722950987404 457.13861127301703 439.05579708448 443.4358812890093 453.34835322024287C429.73315130500157 467.64090935600575 412.06396331359645 465.0289519415478 395.65898387737144 458.4353520157072C379.2540044411465 451.84175208986665 376.11669791892257 446.3672159615486 364.6919799951292 421.6990735762081C353.26726207133584 397.0309311908675 328.5844764575637 352.79081558606043 340.8203378431634 340.02826856607254C353.0561992287631 327.2657215460846 398.2966667382066 350.0632616306885 423.42411464600764 360.43884788026617C448.5515625538086 370.81443412984385 457.2629697499829 370.4749356182171 461.4320878006083 389.8310825640456C465.6012058512337 409.18722950987404 457.13861127301703 439.05579708448 443.4358812890093 453.34835322024287 "></path><path d="M449.1456549816976 391.8648507924474C452.4809494221979 407.3497683491102 445.7108737596245 431.24462240879495 434.7486897724184 442.6786673174052C423.78650578521217 454.1127122260155 409.65115539208807 452.02314629444913 396.5271718431081 446.7482663537767C383.40318829412814 441.47338641310427 380.893343076349 437.09375751044985 371.7535687373143 417.3592436021774C362.61379439827965 397.62472969390495 342.8675659072619 362.2326372100593 352.65625501574164 352.02259959406894C362.44494412422137 341.81256197807863 398.6373181317762 360.0505940457617 418.739276458017 368.35106304542387C438.84123478425784 376.651532045086 445.81036054119727 376.3799332357846 449.1456549816976 391.8648507924474C452.4809494221979 407.3497683491102 445.7108737596245 431.24462240879495 434.7486897724184 442.6786673174052 "></path><path d="M436.859252680365 393.8986495384273C439.36072351074023 405.51233770592444 434.2831667638102 423.433478250688 426.0615287734056 432.0090119321457C417.83989078300095 440.58454561360344 407.2383779881578 439.0173711649287 397.3953903264229 435.06121120942436C387.55240266468786 431.10505125392 385.67001875135355 427.82032957692917 378.81518799707754 413.01944414572483C371.96035724280154 398.2185587145205 357.1506858745382 371.6744893516363 364.492202705898 364.0169611396435C371.8337195372578 356.35943292765074 398.978000042924 370.0379569784131 414.05446878760455 376.2633087281597C429.13093753228515 382.4886604779063 434.35778184998975 382.28496137093026 436.859252680365 393.8986495384273C439.36072351074023 405.51233770592444 434.2831667638102 423.433478250688 426.0615287734056 432.0090119321457 "></path><path d="M424.5728351202433 395.93243302561825C426.2404823404935 403.6748918039496 422.8554445092068 415.622318833792 417.37435251560373 421.33934128809716C411.8932605220006 427.05636374240225 404.82558532543857 426.0115807766191 398.2635935509486 423.37414080628287C391.7016017764586 420.73670083594664 390.446679167569 418.5468863846194 385.8767919980517 408.6796294304832C381.30690482853436 398.812372476347 371.4337905830255 381.11632623442415 376.32813513726535 376.011307426429C381.2224796915052 370.90628861843385 399.3186666952827 380.0253046522754 409.36964585840303 384.17553915210647C419.42062502152345 388.32577365193754 422.90518789999317 388.18997424728684 424.5728351202433 395.93243302561825C426.2404823404935 403.6748918039496 422.8554445092068 415.622318833792 417.37435251560373 421.33934128809716 "></path><path d="M412.28641756012166 397.9662165128091C413.12024117024674 401.83744590197483 411.4277222546034 407.811159416896 408.68717625780187 410.66967064404855C405.94663026100034 413.5281818712011 402.4127926627193 413.00579038830955 399.1317967754743 411.68707040314143C395.8508008882293 410.3683504179733 395.22333958378454 409.27344319230974 392.93839599902583 404.33981471524163C390.6534524142672 399.4061862381735 385.71689529151274 390.5581631172121 388.1640675686327 388.0056537132145C390.6112398457526 385.4531443092169 399.65933334764134 390.0126523261377 404.6848229292015 392.08776957605323C409.7103125107617 394.16288682596877 411.4525939499966 394.0949871236434 412.28641756012166 397.9662165128091C413.12024117024674 401.83744590197483 411.4277222546034 407.811159416896 408.68717625780187 410.66967064404855 "></path></g></svg>